<?xml version="1.0" standalone="no"?>
<!DOCTYPE svg PUBLIC "-//W3C//DTD SVG 20010904//EN"
 "http://www.w3.org/TR/2001/REC-SVG-20010904/DTD/svg10.dtd">
<svg version="1.0" xmlns="http://www.w3.org/2000/svg"
 width="600.000000pt" height="76.000000pt" viewBox="0 0 600.000000 76.000000"
 preserveAspectRatio="xMidYMid meet">

<g transform="translate(0.000000,76.000000) scale(0.100000,-0.100000)"
fill="#000000" stroke="none">
<path d="M288 618 l-3 -143 -142 -3 -143 -3 0 -104 0 -105 94 0 c160 0 176
-15 176 -160 l0 -90 105 0 105 0 0 140 0 140 140 0 140 0 0 110 0 110 -109 0
c-106 0 -110 1 -130 26 -18 23 -21 41 -21 125 l0 99 -105 0 -104 0 -3 -142z"/>
<path d="M3318 687 c-113 -43 -184 -116 -214 -222 -46 -166 49 -335 218 -386
133 -41 270 -13 364 73 162 149 129 403 -67 508 -59 32 -72 35 -164 37 -67 2
-112 -1 -137 -10z m220 -128 c116 -57 139 -234 40 -326 -54 -51 -146 -67 -216
-38 -76 32 -121 102 -122 188 0 81 45 152 115 183 47 21 132 17 183 -7z"/>
<path d="M4830 680 c-68 -25 -115 -62 -157 -124 -43 -62 -56 -116 -51 -196 9
-122 74 -216 187 -269 49 -23 69 -26 156 -26 89 0 107 3 162 29 72 33 135 95
166 164 29 67 28 179 -2 249 -31 70 -110 144 -184 171 -76 29 -199 30 -277 2z
m217 -111 c64 -24 122 -109 123 -179 0 -121 -86 -210 -200 -209 -85 1 -157 46
-186 116 -31 73 -10 187 43 235 48 43 155 62 220 37z"/>
<path d="M5610 683 c-226 -78 -294 -359 -127 -526 113 -113 319 -129 460 -36
26 17 47 37 47 44 0 7 -18 29 -40 49 l-41 37 -32 -24 c-95 -71 -219 -60 -294
26 -79 90 -47 254 59 306 79 38 202 22 247 -33 11 -14 19 -10 63 27 l50 42
-37 32 c-58 50 -131 73 -228 73 -47 -1 -101 -8 -127 -17z"/>
<path d="M1370 671 c-15 -29 -270 -592 -270 -597 0 -2 33 -4 73 -4 l72 0 26
63 25 62 154 0 154 0 25 -62 26 -63 77 0 77 0 -65 142 c-36 79 -100 218 -142
311 l-76 167 -73 0 c-61 0 -74 -3 -83 -19z m174 -339 c7 -22 6 -22 -93 -22
-56 0 -101 2 -101 4 0 2 16 42 36 88 19 45 42 99 50 118 l15 35 43 -100 c24
-55 46 -110 50 -123z"/>
<path d="M1860 498 c0 -230 3 -253 44 -320 44 -73 110 -108 214 -115 142 -10
248 42 296 147 18 40 21 69 24 263 l4 217 -76 0 -76 0 0 -200 c0 -152 -3 -209
-14 -235 -41 -97 -202 -100 -251 -6 -12 24 -15 70 -15 236 l0 205 -75 0 -75 0
0 -192z"/>
<path d="M2500 635 l0 -55 105 0 105 0 0 -255 0 -255 70 0 70 0 0 255 0 255
105 0 105 0 0 55 0 55 -280 0 -280 0 0 -55z"/>
<path d="M3900 380 l0 -310 178 0 c194 0 251 10 328 55 47 28 100 93 121 148
15 40 16 160 3 209 -14 49 -65 115 -115 150 -70 47 -132 58 -333 58 l-182 0 0
-310z m397 171 c134 -68 133 -276 -2 -341 -33 -16 -62 -20 -143 -20 l-102 0 0
196 0 197 103 -5 c79 -4 112 -10 144 -27z"/>
</g>
</svg>
